<?xml version="1.0" encoding="UTF-8"?>
<svg width="1200pt" height="1200pt" version="1.1" viewBox="0 0 1200 1200" xmlns="http://www.w3.org/2000/svg">
 <path d="m470.62 92.699c0.55078-51-41.426-93.254-92.566-92.699-52.262-0.55078-94.512 41.699-94.234 92.699-0.27734 52.262 41.977 94.094 94.234 94.234 51.141-0.14062 93.117-41.961 92.566-94.234z"/>
 <path d="m739.69 604.74-299.38-363.18c-15.562-23.062-102.3-32.797-139-3.3359l-145.66 265.05 35.855 224.04c36.422 58.512 108.68-0.69531 88.391-32.664l-24.453-158.7 60.324-116.06-3.0625 284.64-130.92 408.91c-25.848 86.734 102.01 122.87 127.59 39.336l162.06-451.57-1.668-229.62-75.336-89.09c-3.6133-4.3086-3.0586-10.836 1.3906-14.594 4.4531-3.6133 10.836-3.0469 14.461 1.2461l249.06 294.52c40.031 54.773 120.36-3.4648 80.34-58.918z"/>
 <path d="m625.16 1108.6-147.05-365.95-60.035 168.18 85.895 246.84c34.738 81.312 156.77 33.777 121.19-49.07z"/>
 <path d="m1015.2 1192.5c0.27734 0.27734 0.5625 0.69531 0.5625 0.82812 5.832 6.9492 16.129 7.6445 23.074 1.9453 6.1094-5.2812 7.2344-14.594 3.0586-21.266l-277.16-481.16c-0.27734-0.27734-0.55078-0.5625-0.82812-0.97266-5.5547-6.6719-15.84-7.6562-22.789-1.8008-6.1211 5.2812-6.6719 14.172-2.7734 21.254z"/>
</svg>
